<?xml version="1.0" encoding="UTF-8"?>
<svg width="129px" height="69px" viewBox="0 0 129 69" version="1.1" xmlns="http://www.w3.org/2000/svg" xmlns:xlink="http://www.w3.org/1999/xlink">
    <!-- Generator: Sketch 52.2 (67145) - http://www.bohemiancoding.com/sketch -->
    <title>SIMBOLO COMPLETO</title>
    <desc>Created with Sketch.</desc>
    <g id="Page-1" stroke="none" stroke-width="1" fill="none" fill-rule="evenodd">
        <g id="SIMBOLO-COMPLETO">
            <g>
                <g id="FONDO" fill="#DAA2C9">
                    <polygon id="Fill-1" points="0 69 129 69 129 0 0 0"></polygon>
                </g>
                <g id="A" transform="translate(86.000000, 17.000000)" fill="#FEFEFE">
                    <path d="M19.6652,3.3619 L29.2072,31.6069 L20.7042,31.6069 L18.6302,24.8179 L7.1852,24.8179 L5.1222,31.6079 L0.2152,31.6079 L9.8442,0.1529 L15.8562,0.1579 C18.1812,0.1579 18.7782,0.7369 19.6652,3.3619 Z M8.5642,20.2119 L17.2132,20.2119 L12.8572,5.8629 L8.5642,20.2119 Z" id="Combined-Shape"></path>
                </g>
                <g id="B" transform="translate(13.000000, 17.000000)" fill="#FEFEFE">
                    <path d="M18.4127,12.4886 C29.1827,18.0826 25.6817,31.6186 14.0617,31.6186 L0.8467,31.6186 L0.8467,0.1496 L14.5427,0.1496 C20.9627,0.1496 23.2017,5.3806 19.9487,10.2076 L18.4127,12.4886 Z M10.4817,27.3916 C14.2217,27.3916 17.0587,25.3726 17.0587,20.6436 C17.0587,16.7396 15.2287,14.6586 12.4897,13.9946 L15.1137,10.0786 C15.7777,9.0966 15.9187,8.4806 15.9187,7.7906 C15.9187,5.8696 14.2287,4.2536 12.2827,4.2536 L8.2467,4.2536 L8.2467,27.3916 L10.4817,27.3916 Z" id="Combined-Shape"></path>
                </g>
                <g id="B2" transform="translate(40.000000, 17.000000)" fill="#FEFEFE">
                    <path d="M18.025,12.4886 C28.795,18.0826 25.294,31.6186 13.675,31.6186 L0.46,31.6186 L0.46,0.1496 L14.155,0.1496 C20.575,0.1496 22.812,5.3806 19.561,10.2076 L18.025,12.4886 Z M10.094,27.3916 C13.835,27.3916 16.673,25.3726 16.673,20.6436 C16.673,16.7396 14.841,14.6586 12.103,13.9946 L14.727,10.0786 C15.389,9.0966 15.531,8.4806 15.531,7.7906 C15.531,5.8696 13.84,4.2536 11.895,4.2536 L7.86,4.2536 L7.86,27.3916 L10.094,27.3916 Z" id="Combined-Shape"></path>
                </g>
                <g id="V" transform="translate(62.000000, 17.000000)" fill="#FEFEFE">
                    <path d="M22.9338,0.1475 L27.8978,0.1475 L18.3098,31.6045 L10.7608,31.6015 L0.4758,0.1535 L6.0308,0.1475 C8.1788,0.1475 8.7418,0.7025 9.8658,4.2655 L15.8198,24.0425 L22.9338,0.1475" id="Fill-6"></path>
                </g>
            </g>
        </g>
    </g>
</svg>