<?xml version="1.0" encoding="UTF-8"?>
<svg width="25px" height="33px" viewBox="0 0 25 33" version="1.1" xmlns="http://www.w3.org/2000/svg" xmlns:xlink="http://www.w3.org/1999/xlink">
    <!-- Generator: Sketch 52.2 (67145) - http://www.bohemiancoding.com/sketch -->
    <title>B</title>
    <desc>Created with Sketch.</desc>
    <g id="Page-1" stroke="none" stroke-width="1" fill="none" fill-rule="evenodd">
        <path d="M17.566,12.9469 C28.336,18.5409 24.835,32.0769 13.215,32.0769 L7.10542736e-15,32.0769 L7.10542736e-15,0.6079 L13.696,0.6079 C20.116,0.6079 22.355,5.8389 19.102,10.6659 L17.566,12.9469 Z M9.635,27.8499 C13.375,27.8499 16.212,25.8309 16.212,21.1019 C16.212,17.1979 14.382,15.1169 11.643,14.4529 L14.267,10.5369 C14.931,9.5549 15.072,8.9389 15.072,8.2489 C15.072,6.3279 13.382,4.7119 11.436,4.7119 L7.4,4.7119 L7.4,27.8499 L9.635,27.8499 Z" id="B" fill="#FEFEFE"></path>
    </g>
</svg>