<?xml version="1.0" encoding="UTF-8"?>
<svg width="25px" height="33px" viewBox="0 0 25 33" version="1.1" xmlns="http://www.w3.org/2000/svg" xmlns:xlink="http://www.w3.org/1999/xlink">
    <!-- Generator: Sketch 52.2 (67145) - http://www.bohemiancoding.com/sketch -->
    <title>B2</title>
    <desc>Created with Sketch.</desc>
    <g id="Page-1" stroke="none" stroke-width="1" fill="none" fill-rule="evenodd">
        <path d="M17.565,12.9469 C28.335,18.5409 24.834,32.0769 13.215,32.0769 L-2.48689958e-14,32.0769 L-2.48689958e-14,0.6079 L13.695,0.6079 C20.115,0.6079 22.352,5.8389 19.101,10.6659 L17.565,12.9469 Z M9.634,27.8499 C13.375,27.8499 16.213,25.8309 16.213,21.1019 C16.213,17.1979 14.381,15.1169 11.643,14.4529 L14.267,10.5369 C14.929,9.5549 15.071,8.9389 15.071,8.2489 C15.071,6.3279 13.38,4.7119 11.435,4.7119 L7.4,4.7119 L7.4,27.8499 L9.634,27.8499 Z" id="B2" fill="#FEFEFE"></path>
    </g>
</svg>