<?xml version="1.0" encoding="utf-8"?>
<!-- Generator: Adobe Illustrator 21.0.0, SVG Export Plug-In . SVG Version: 6.00 Build 0)  -->
<svg version="1.1" xmlns="http://www.w3.org/2000/svg" xmlns:xlink="http://www.w3.org/1999/xlink" x="0px" y="0px"
	 viewBox="0 0 841.9 595.3" enable-background="new 0 0 841.9 595.3" xml:space="preserve">
<g id="FONDO">
	<rect x="303.6" y="265" fill="#DBA2CA" width="129" height="69"/>
</g>
<g id="logo">
	<path fill="#FFFFFF" d="M361.6,294.5l1.5-2.3c3.3-4.8,1-10.1-5.4-10.1H344v31.5h13.2C368.9,313.6,372.4,300.1,361.6,294.5z
		 M353.7,309.4h-2.2v-23.1h4c1.9,0,3.6,1.6,3.6,3.5c0,0.7-0.1,1.3-0.8,2.3l-2.6,3.9c2.7,0.7,4.6,2.7,4.6,6.6
		C360.2,307.4,357.4,309.4,353.7,309.4z"/>
	<path fill="#FFFFFF" d="M335,294.5l1.5-2.3c3.3-4.8,1-10.1-5.4-10.1h-13.7v31.5h13.2C342.2,313.6,345.7,300.1,335,294.5z
		 M327,309.4h-2.2v-23.1h4c1.9,0,3.6,1.6,3.6,3.5c0,0.7-0.1,1.3-0.8,2.3L329,296c2.7,0.7,4.6,2.7,4.6,6.6
		C333.6,307.4,330.8,309.4,327,309.4z"/>
	<path fill="#FFFFFF" d="M388.5,282.1h5l-9.6,31.5l-7.5,0L366,282.2l5.6,0c2.1,0,2.7,0.6,3.8,4.1l6,19.8L388.5,282.1"/>
	<path fill="#FFFFFF" d="M409.2,285.4c-0.9-2.6-1.5-3.2-3.8-3.2l-6,0l-9.6,31.5h4.9l2.1-6.8h11.4l2.1,6.8h8.5L409.2,285.4z
		 M398.1,302.2l4.3-14.3l4.4,14.3H398.1z"/>
</g>
</svg>
