<svg xmlns="http://www.w3.org/2000/svg" viewBox="0 0 32 32">
  <path d="M21.81 20.85L5.83 5a15 15 0 0 0 1.3 23.09l14.65-7.22z" fill="#1765a0"/>
  <path d="M16 1A14.93 14.93 0 0 0 5.83 5l16 15.86 5-2.47 4.15-2v-.35A15 15 0 0 0 16 1z" fill="#0c457f"/>
  <path d="M21.82 20.86L7.13 28.09a15 15 0 0 0 19.94-2z" fill="#1f355c"/>
  <path d="M21.82 20.86l5.27 5.23A14.92 14.92 0 0 0 31 16.36l-4.15 2z" fill="#1b2542"/>
  <g data-name="Logo BBVA" fill="#f9f9f9">
    <path d="M13.35 15.54l.58-.81a.87.87 0 0 0 .12-.46.79.79 0 0 0-.81-.81h-.81v5h.46a1.31 1.31 0 0 0 1.38-1.5 1.39 1.39 0 0 0-.92-1.38m.35 3.81h-2.89v-6.74h2.88a1.32 1.32 0 0 1 1.15 2.19l-.35.46c2.42 1.15 1.62 4-.81 4"/>
    <path d="M7.69 15.54l.58-.81a.87.87 0 0 0 .12-.46.79.79 0 0 0-.81-.81h-.81v5h.46a1.31 1.31 0 0 0 1.38-1.5 1.39 1.39 0 0 0-.92-1.38M8 19.35H5.15v-6.7H8a1.32 1.32 0 0 1 1.15 2.19l-.35.46c2.42 1.15 1.62 4-.81 4M20.38 12.65h1l-2.08 6.69h-1.57l-2.19-6.69h1.15c.46 0 .58.12.81.92l1.27 4.27zM22.46 16.92l.92-3.12.92 3.12zm2.31-3.58c-.23-.58-.35-.69-.81-.69h-1.27l-2.08 6.69h1l.46-1.5h2.42l.46 1.5h1.85z"/>
  </g>
</svg>
