<?xml version="1.0" encoding="UTF-8"?>
<svg width="56px" height="56px" viewBox="0 0 56 56" version="1.1" xmlns="http://www.w3.org/2000/svg" xmlns:xlink="http://www.w3.org/1999/xlink">
    <!-- Generator: Sketch 52.4 (67378) - http://www.bohemiancoding.com/sketch -->
    <title>abc-smbl</title>
    <desc>Created with Sketch.</desc>
    <g id="abc" stroke="none" stroke-width="1" fill="none" fill-rule="evenodd">
        <g id="nxt-svg__bg--circle">
            <polygon id="Path" fill="#1765A0" points="39 37.0533333 2.02962647e-16 0 0 56 38.943777 37.0906667"></polygon>
            <path d="M28.0186791,0.00506484251 C23.0603433,-0.00168828084 13.7207836,-0.00168828084 0,0.00506484251 L38.9086057,38 L48.2481654,33.2745473 L56,29.4482699 C56,29.2952188 56,19.4808171 56,0.00506484251 C42.3041219,0.0118179658 32.9770149,0.0118179658 28.0186791,0.00506484251 Z" id="Path" fill="#0C457F"></path>
            <polygon id="Path" fill="#1F355C" points="38.864 37 0 56 56 56 56 54.0019776"></polygon>
            <polygon id="Path" fill="#1B2542" points="39 37.1922902 56 54 56 29"></polygon>
        </g>
        <g id="nxt__content" transform="translate(4.000000, 5.000000)" fill="#F9F9F9" fill-rule="nonzero">
            <g id="nxt-svg__goldstar" transform="translate(0.000000, 32.000000)">
                <path d="M5.46452211,6.05138565 L6.71232638,4.36152276 C6.88858888,4.07107646 6.977982,3.73877775 6.97049277,3.40184753 C6.98244058,2.95021579 6.80268269,2.51362792 6.47325178,2.19417098 C6.14382087,1.87471405 5.69360201,1.70039857 5.22786958,1.71198464 L3.48524639,1.71198464 L3.48524639,12.1432371 L4.47488425,12.1432371 C5.32468058,12.1963467 6.1536763,11.8740097 6.73023011,11.2662946 C7.30678393,10.6585795 7.56906946,9.8306544 7.44379784,9.01386134 C7.51141265,7.73580595 6.70710478,6.56587143 5.46452211,6.13483567 M6.13145198,14 L0,14 L0,0.0221217445 L6.13145198,0.0221217445 C7.30761342,-0.123017459 8.45297871,0.455703388 9.00420122,1.47364109 C9.55542373,2.49157878 9.39648012,3.73447408 8.60554664,4.59101031 L7.8525613,5.55068553 C13.058917,7.94987359 11.3378077,13.8956875 6.10993811,13.8956875" id="b1"></path>
                <path d="M18.4326465,6.01552879 L19.6731721,4.33567901 C19.8484064,4.04695372 19.9372781,3.71662401 19.9298325,3.38169024 C19.9417107,2.93273459 19.7630013,2.49873368 19.4354921,2.18116965 C19.1079828,1.86360562 18.6603901,1.69032304 18.1973744,1.70184045 L16.4649163,1.70184045 L16.4649163,12.0712836 L17.4487814,12.0712836 C18.2936207,12.1240785 19.1177807,11.8036515 19.6909714,11.1995373 C20.2641621,10.5954232 20.5249176,9.77240388 20.4003767,8.96045064 C20.4675971,7.68996823 19.6679809,6.52696604 18.4326465,6.09848434 M19.1812395,14 L13,14 L13,0.0219906644 L19.1598512,0.0219906644 C20.3291518,-0.122288532 21.467836,0.453003165 22.0158431,1.46490918 C22.5638502,2.47681519 22.4058338,3.71234584 21.6195139,4.56380675 L20.8709209,5.51779552 C26.046907,7.90276744 24.3358372,13.81335 19.1384628,13.81335" id="b2"></path>
                <path d="M33.7739726,3.71733868e-15 L36,0 L31.369863,14 L27.875,14 L23,0 L25.5599315,0 C26.5839041,0 26.8510274,0.251121076 27.3630137,1.92526158 L30.1900685,10.8609865 L33.7739726,3.71733868e-15 Z" id="V"></path>
                <path d="M38.184168,8.93572496 L40.2649435,2.40657698 L42.3457189,8.93572496 L38.184168,8.93572496 Z M43.4087237,1.44394619 C42.8885299,0.23019432 42.6171244,0 41.5767367,0 L38.7043619,0 L34,14 L36.2617124,14 L37.3021002,10.8609865 L42.7754443,10.8609865 L43.815832,14 L48,14 L43.4087237,1.44394619 Z" id="Fill-a"></path>
            </g>
            <g id="nxt-svg--shadow" transform="translate(0.000000, 16.000000)">
                <path d="M5.46452211,6.05138565 L6.71232638,4.36152276 C6.88858888,4.07107646 6.977982,3.73877775 6.97049277,3.40184753 C6.98244058,2.95021579 6.80268269,2.51362792 6.47325178,2.19417098 C6.14382087,1.87471405 5.69360201,1.70039857 5.22786958,1.71198464 L3.48524639,1.71198464 L3.48524639,12.1432371 L4.47488425,12.1432371 C5.32468058,12.1963467 6.1536763,11.8740097 6.73023011,11.2662946 C7.30678393,10.6585795 7.56906946,9.8306544 7.44379784,9.01386134 C7.51141265,7.73580595 6.70710478,6.56587143 5.46452211,6.13483567 M6.13145198,14 L0,14 L0,0.0221217445 L6.13145198,0.0221217445 C7.30761342,-0.123017459 8.45297871,0.455703388 9.00420122,1.47364109 C9.55542373,2.49157878 9.39648012,3.73447408 8.60554664,4.59101031 L7.8525613,5.55068553 C13.058917,7.94987359 11.3378077,13.8956875 6.10993811,13.8956875" id="b1"></path>
                <path d="M18.4326465,6.01552879 L19.6731721,4.33567901 C19.8484064,4.04695372 19.9372781,3.71662401 19.9298325,3.38169024 C19.9417107,2.93273459 19.7630013,2.49873368 19.4354921,2.18116965 C19.1079828,1.86360562 18.6603901,1.69032304 18.1973744,1.70184045 L16.4649163,1.70184045 L16.4649163,12.0712836 L17.4487814,12.0712836 C18.2936207,12.1240785 19.1177807,11.8036515 19.6909714,11.1995373 C20.2641621,10.5954232 20.5249176,9.77240388 20.4003767,8.96045064 C20.4675971,7.68996823 19.6679809,6.52696604 18.4326465,6.09848434 M19.1812395,14 L13,14 L13,0.0219906644 L19.1598512,0.0219906644 C20.3291518,-0.122288532 21.467836,0.453003165 22.0158431,1.46490918 C22.5638502,2.47681519 22.4058338,3.71234584 21.6195139,4.56380675 L20.8709209,5.51779552 C26.046907,7.90276744 24.3358372,13.81335 19.1384628,13.81335" id="b2"></path>
                <path d="M33.7739726,3.71733868e-15 L36,0 L31.369863,14 L27.875,14 L23,0 L25.5599315,0 C26.5839041,0 26.8510274,0.251121076 27.3630137,1.92526158 L30.1900685,10.8609865 L33.7739726,3.71733868e-15 Z" id="V"></path>
                <path d="M38.184168,8.93572496 L40.2649435,2.40657698 L42.3457189,8.93572496 L38.184168,8.93572496 Z M43.4087237,1.44394619 C42.8885299,0.23019432 42.6171244,0 41.5767367,0 L38.7043619,0 L34,14 L36.2617124,14 L37.3021002,10.8609865 L42.7754443,10.8609865 L43.815832,14 L48,14 L43.4087237,1.44394619 Z" id="Fill-a"></path>
            </g>
            <g id="nxt-svg__linear">
                <path d="M5.46452211,6.05138565 L6.71232638,4.36152276 C6.88858888,4.07107646 6.977982,3.73877775 6.97049277,3.40184753 C6.98244058,2.95021579 6.80268269,2.51362792 6.47325178,2.19417098 C6.14382087,1.87471405 5.69360201,1.70039857 5.22786958,1.71198464 L3.48524639,1.71198464 L3.48524639,12.1432371 L4.47488425,12.1432371 C5.32468058,12.1963467 6.1536763,11.8740097 6.73023011,11.2662946 C7.30678393,10.6585795 7.56906946,9.8306544 7.44379784,9.01386134 C7.51141265,7.73580595 6.70710478,6.56587143 5.46452211,6.13483567 M6.13145198,14 L0,14 L0,0.0221217445 L6.13145198,0.0221217445 C7.30761342,-0.123017459 8.45297871,0.455703388 9.00420122,1.47364109 C9.55542373,2.49157878 9.39648012,3.73447408 8.60554664,4.59101031 L7.8525613,5.55068553 C13.058917,7.94987359 11.3378077,13.8956875 6.10993811,13.8956875" id="b1"></path>
                <path d="M18.4326465,6.01552879 L19.6731721,4.33567901 C19.8484064,4.04695372 19.9372781,3.71662401 19.9298325,3.38169024 C19.9417107,2.93273459 19.7630013,2.49873368 19.4354921,2.18116965 C19.1079828,1.86360562 18.6603901,1.69032304 18.1973744,1.70184045 L16.4649163,1.70184045 L16.4649163,12.0712836 L17.4487814,12.0712836 C18.2936207,12.1240785 19.1177807,11.8036515 19.6909714,11.1995373 C20.2641621,10.5954232 20.5249176,9.77240388 20.4003767,8.96045064 C20.4675971,7.68996823 19.6679809,6.52696604 18.4326465,6.09848434 M19.1812395,14 L13,14 L13,0.0219906644 L19.1598512,0.0219906644 C20.3291518,-0.122288532 21.467836,0.453003165 22.0158431,1.46490918 C22.5638502,2.47681519 22.4058338,3.71234584 21.6195139,4.56380675 L20.8709209,5.51779552 C26.046907,7.90276744 24.3358372,13.81335 19.1384628,13.81335" id="b2"></path>
                <path d="M33.7739726,3.71733868e-15 L36,0 L31.369863,14 L27.875,14 L23,0 L25.5599315,0 C26.5839041,0 26.8510274,0.251121076 27.3630137,1.92526158 L30.1900685,10.8609865 L33.7739726,3.71733868e-15 Z" id="V"></path>
                <path d="M38.184168,8.93572496 L40.2649435,2.40657698 L42.3457189,8.93572496 L38.184168,8.93572496 Z M43.4087237,1.44394619 C42.8885299,0.23019432 42.6171244,0 41.5767367,0 L38.7043619,0 L34,14 L36.2617124,14 L37.3021002,10.8609865 L42.7754443,10.8609865 L43.815832,14 L48,14 L43.4087237,1.44394619 Z" id="Fill-a"></path>
            </g>
        </g>
    </g>
</svg>