<?xml version="1.0" encoding="UTF-8"?>
<svg width="30px" height="30px" viewBox="0 0 30 30" version="1.1" xmlns="http://www.w3.org/2000/svg" xmlns:xlink="http://www.w3.org/1999/xlink">
    <!-- Generator: Sketch 52.3 (67297) - http://www.bohemiancoding.com/sketch -->
    <title>Artboard-B</title>
    <desc>Created with Sketch.</desc>
    <g id="Artboard-B" stroke="none" stroke-width="1" fill="none" fill-rule="evenodd">
        <g id="grupo-fondo" transform="translate(0.000000, -1.000000)">
            <polygon id="Path" fill="#1765A0" points="20.81 20.85 1.08298787e-16 1 0 31 20.78 20.87"></polygon>
            <path d="M15,1 C12.3455195,0.996470134 7.34551952,0.996470134 0,1 L20.83,20.86 L25.83,18.39 L29.98,16.39 C29.98,16.31 29.98,11.18 29.98,1 C22.6478138,1.00352987 17.6544805,1.00352987 15,1 Z" id="Path" fill="#0C457F"></path>
            <polygon id="Path" fill="#1F355C" points="20.82 20.86 0 31 30 31 30 29.933687"></polygon>
            <polygon id="Path" fill="#1B2542" points="20.82 20.86 30 30.0924237 30 16.36"></polygon>
        </g>
        <g id="Logo_BBVA" transform="translate(4.000000, 11.000000)" fill-rule="nonzero">
            <path d="M2.69,3.54 L3.27,2.73 C3.35192972,2.59078072 3.39348111,2.43150037 3.39,2.27 C3.39555354,2.05351989 3.3119991,1.84425073 3.15887419,1.69112581 C3.00574927,1.5380009 2.79648011,1.45444646 2.58,1.46 L1.77,1.46 L1.77,6.46 L2.23,6.46 C2.62499935,6.48545699 3.01033023,6.33095155 3.27832195,6.0396562 C3.54631368,5.74836085 3.66822832,5.35151246 3.61,4.96 C3.64142848,4.34739121 3.26757292,3.78660786 2.69,3.58 M3,7.35 L0.15,7.35 L0.15,0.65 L3,0.65 C3.54669923,0.580430596 4.07908391,0.857828181 4.33530123,1.34575506 C4.59151854,1.83368195 4.51763893,2.42943749 4.15,2.84 L3.8,3.3 C6.22,4.45 5.42,7.3 2.99,7.3" id="Fill-b" fill="#9F9F9F"></path>
            <path d="M8.35,3.54 L8.93,2.73 C9.01192972,2.59078072 9.05348111,2.43150037 9.05,2.27 C9.05555354,2.05351989 8.9719991,1.84425073 8.81887419,1.69112581 C8.66574927,1.5380009 8.45648011,1.45444646 8.24,1.46 L7.43,1.46 L7.43,6.46 L7.89,6.46 C8.28499935,6.48545699 8.67033023,6.33095155 8.93832195,6.0396562 C9.20631368,5.74836085 9.32822832,5.35151246 9.27,4.96 C9.30142848,4.34739121 8.92757292,3.78660786 8.35,3.58 M8.7,7.39 L5.81,7.39 L5.81,0.65 L8.69,0.65 C9.23669923,0.580430596 9.76908391,0.857828181 10.0253012,1.34575506 C10.2815185,1.83368195 10.2076389,2.42943749 9.84,2.84 L9.49,3.3 C11.91,4.45 11.11,7.3 8.68,7.3" id="Fill-b" fill="#F9F9F9"></path>
            <path d="M15.38,0.65 L16.38,0.65 L14.3,7.34 L12.73,7.34 L10.54,0.65 L11.69,0.65 C12.15,0.65 12.27,0.77 12.5,1.57 L13.77,5.84 L15.38,0.65 Z" id="Fill-v" fill="#F9F9F9"></path>
            <path d="M17.46,4.92 L18.38,1.8 L19.3,4.92 L17.46,4.92 Z M19.77,1.34 C19.54,0.76 19.42,0.65 18.96,0.65 L17.69,0.65 L15.61,7.34 L16.61,7.34 L17.07,5.84 L19.49,5.84 L19.95,7.34 L21.8,7.34 L19.77,1.34 Z" id="Fill-a" fill="#F9F9F9"></path>
        </g>
        <g id="grupo-cua" transform="translate(4.000000, 5.000000)">
            <rect id="cua-4" fill="#D8D8D8" opacity="0.605352493" x="0" y="0" width="4" height="1"></rect>
            <rect id="cua-3" fill="#D8D8D8" opacity="0.605352493" x="6" y="0" width="4" height="1"></rect>
            <rect id="cua-2" fill="#D01B92" x="12" y="0" width="4" height="1"></rect>
            <rect id="cua-1" fill="#9B2121" x="18" y="0" width="4" height="1"></rect>
        </g>
        <g id="grupo-cua-amin" transform="translate(4.000000, 23.000000)">
            <rect id="cua-4" fill="#D8D8D8" opacity="0.605352493" x="0" y="0" width="4" height="1"></rect>
            <rect id="cua-3" fill="#D8D8D8" opacity="0.605352493" x="6" y="0" width="4" height="1"></rect>
            <rect id="cua-2" fill="#D01B92" x="12" y="0" width="4" height="1"></rect>
            <rect id="cua-1" fill="#9B2121" x="18" y="0" width="4" height="1"></rect>
        </g>
    </g>
</svg>