<?xml version="1.0" encoding="UTF-8"?>
<svg width="176px" height="120px" viewBox="0 0 176 120" version="1.1" xmlns="http://www.w3.org/2000/svg" xmlns:xlink="http://www.w3.org/1999/xlink">
    <!-- Generator: Sketch 52.4 (67378) - http://www.bohemiancoding.com/sketch -->
    <title>micro-warning</title>
    <desc>Created with Sketch.</desc>
    <g id="Page-1" stroke="none" stroke-width="1" fill="none" fill-rule="evenodd">
        <g id="micro-warning">
            <g id="bg" fill="#E77D8E">
                <path d="M55.549817,2.63414634 L0.632545757,113.812683 C-1.0191015,117.158049 0.679400998,119.862439 4.41024958,119.862439 L112.657571,119.862439 C116.400133,119.862439 118.083993,117.152195 116.435275,113.812683 L61.5267887,2.63414634 C60.6980366,0.96 59.6145092,0.125853659 58.5368386,0.125853659 C57.4591681,0.125853659 56.3697837,0.96 55.549817,2.63414634" id="item"></path>
            </g>
            <g id="content" transform="translate(51.000000, 37.000000)">
                <g id="shadow" transform="translate(6.000000, 0.000000)" fill="#C24F62">
                    <path d="M6.0437271,55.7073171 C5.2497339,55.7073632 4.4618518,55.8460328 3.7156073,56.1170732 C6.322492,57.1390523 8.0374668,59.6520255 8.0380033,62.4507317 C8.0380565,65.3132 6.2480068,67.8705 3.5574709,68.851707 C6.1057254,69.8453 9.0015193,69.218309 10.909878,67.259781 C12.8182367,65.301252 13.3686217,62.391466 12.3073028,59.8718467 C11.245984,57.3522274 8.7790335,55.712 6.0437271,55.7073171" id="item"></path>
                    <polygon id="item" points="0.9013644 0.475122 0.9013644 4.622439 6.9779035 10.6253659 6.9779035 48.8439024 0.9013644 48.8439024 0.9013644 48.902439 11.7922795 48.902439 11.7922795 10.6809756 1.4606988 0.475122"></polygon>
                </g>
                <g id="lines" transform="translate(12.000000, 14.000000)">
                    <path d="M108.865025,12.1346341 L106.949817,12.1346341 C105.670477,12.1775853 104.66716,13.2471101 104.706622,14.5258537 L104.706622,14.9385366 C104.665526,16.2178962 105.669757,17.2883944 106.949817,17.3297561 L108.865025,17.3297561 C109.479487,17.3099022 110.060848,17.0467327 110.481049,16.5982178 C110.90125,16.1497028 111.12582,15.5526358 111.105291,14.9385366 L111.105291,14.5258537 C111.146405,13.2475997 110.143927,12.1775732 108.865025,12.1346341" id="item" fill="#E2F3FD"></path>
                    <path d="M110.428819,0.5443902 L22.6777371,0.5443902 L25.0468552,5.3385366 L110.428819,5.3385366 C111.036602,5.355572 111.624708,5.1223611 112.055474,4.6934937 C112.486241,4.2646264 112.721851,3.6777514 112.707155,3.0702439 L112.707155,2.8917073 C112.722116,2.2774045 112.488982,1.6829513 112.060337,1.24243 C111.631693,0.8019087 111.04364,0.5524223 110.428819,0.5502439" id="item" fill="#E2F3FD"></path>
                    <polyline id="item" fill="#DAC8D8" points="22.6777371 0.5443902 5.7922795 0.5443902 5.7922795 5.3385366 25.0468552 5.3385366 22.6777371 0.5443902"></polyline>
                    <path d="M98.193744,12.1346341 L28.4672879,12.2663415 L30.77198,16.9317073 L98.193744,16.9317073 C99.45005,16.9317073 100.308087,15.9219512 100.308087,14.5902439 L100.308087,14.4117073 C100.308087,13.0712195 99.45005,12.1434146 98.193744,12.1434146" id="item" fill="#E2F3FD"></path>
                    <polyline id="item" fill="#DAC8D8" points="28.4672879 12.2663415 5.7922795 12.3073171 5.7922795 16.9317073 30.77198 16.9317073 28.4672879 12.2663415"></polyline>
                    <path d="M33.9317804,23.3004878 L36.5117471,28.5219512 L73.714809,28.5219512 C74.974043,28.5219512 75.911148,27.4360976 75.911148,26.0956098 L75.911148,25.9170732 C75.911148,24.5736585 74.974043,23.3268293 73.714809,23.3268293 L33.9317804,23.3004878" id="item" fill="#E2F3FD"></path>
                    <polyline id="item" fill="#DAC8D8" points="5.7922795 23.28 5.7922795 28.5219512 36.4971048 28.5219512 33.9171381 23.3004878 5.7922795 23.28"></polyline>
                    <polyline id="item" fill="#BC7183" points="5.7922795 0.5443902 0.9779035 0.5443902 0.9779035 5.3385366 5.7922795 5.3385366 5.7922795 0.5443902"></polyline>
                    <polyline id="item" fill="#BC7183" points="5.7922795 12.3073171 1.0042596 12.3160976 1.0042596 16.9317073 5.7922795 16.9317073 5.7922795 12.3073171"></polyline>
                    <polyline id="item" fill="#BC7183" points="0.9779035 23.2770732 0.9779035 28.5219512 5.7922795 28.5219512 5.7922795 23.28 0.9779035 23.2770732"></polyline>
                </g>
                <g id="info" fill="#FFFFFF">
                    <path d="M0.4236273,62.5121951 C0.426862,58.7543475 3.4772251,55.7104795 7.2371573,55.7131731 C10.9970896,55.7158667 14.0430836,58.764102 14.0409281,62.5219504 C14.0387727,66.279799 10.9892839,69.324542 7.2293511,69.322927 C5.4230765,69.322151 3.6911335,68.604064 2.4147284,67.32672 C1.1383234,66.049376 0.4220733,64.317468 0.4236273,62.5121951" id="item"></path>
                    <polygon id="item" points="2.0869884 0.475122 2.6463228 0.475122 12.9779035 10.6809756 12.9779035 48.902439 2.0869884 48.902439"></polygon>
                </g>
            </g>
        </g>
    </g>
</svg>